<svg width="14" height="14" viewBox="0 0 14 14" fill="none" xmlns="http://www.w3.org/2000/svg">
<g id="favorite">
<mask id="mask0_68_264" style="mask-type:alpha" maskUnits="userSpaceOnUse" x="0" y="0" width="14" height="14">
<rect id="Bounding box" width="14" height="14" fill="#D9D9D9"/>
</mask>
<g mask="url(#mask0_68_264)">
<path id="favorite_2" d="M6.99996 12.25L6.15413 11.4917C5.17218 10.6069 4.36038 9.84375 3.71871 9.20208C3.07704 8.56041 2.56663 7.98437 2.18746 7.47395C1.80829 6.96354 1.54336 6.49444 1.39267 6.06666C1.24197 5.63889 1.16663 5.20139 1.16663 4.75416C1.16663 3.84027 1.47288 3.07708 2.08538 2.46458C2.69788 1.85208 3.46107 1.54583 4.37496 1.54583C4.88052 1.54583 5.36177 1.65277 5.81871 1.86666C6.27565 2.08055 6.6694 2.38194 6.99996 2.77083C7.33052 2.38194 7.72427 2.08055 8.18121 1.86666C8.63815 1.65277 9.1194 1.54583 9.62496 1.54583C10.5388 1.54583 11.302 1.85208 11.9145 2.46458C12.527 3.07708 12.8333 3.84027 12.8333 4.75416C12.8333 5.20139 12.7579 5.63889 12.6073 6.06666C12.4566 6.49444 12.1916 6.96354 11.8125 7.47395C11.4333 7.98437 10.9229 8.56041 10.2812 9.20208C9.63954 9.84375 8.82774 10.6069 7.84579 11.4917L6.99996 12.25Z" fill="#EF9595"/>
</g>
</g>
</svg>
