<svg width="14" height="14" viewBox="0 0 14 14" fill="none" xmlns="http://www.w3.org/2000/svg">
<g id="favorite">
<mask id="mask0_68_176" style="mask-type:alpha" maskUnits="userSpaceOnUse" x="0" y="0" width="14" height="14">
<rect id="Bounding box" width="14" height="14" fill="#D9D9D9"/>
</mask>
<g mask="url(#mask0_68_176)">
<path id="favorite_2" d="M6.99972 12.25L6.15388 11.4917C5.17194 10.6069 4.36013 9.84375 3.71847 9.20209C3.0768 8.56042 2.56638 7.98438 2.18722 7.47396C1.80805 6.96355 1.54312 6.49445 1.39242 6.06667C1.24173 5.63889 1.16638 5.20139 1.16638 4.75417C1.16638 3.84028 1.47263 3.07709 2.08513 2.46459C2.69763 1.85209 3.46083 1.54584 4.37472 1.54584C4.88027 1.54584 5.36152 1.65278 5.81847 1.86667C6.27541 2.08056 6.66916 2.38195 6.99972 2.77084C7.33027 2.38195 7.72402 2.08056 8.18097 1.86667C8.63791 1.65278 9.11916 1.54584 9.62472 1.54584C10.5386 1.54584 11.3018 1.85209 11.9143 2.46459C12.5268 3.07709 12.833 3.84028 12.833 4.75417C12.833 5.20139 12.7577 5.63889 12.607 6.06667C12.4563 6.49445 12.1914 6.96355 11.8122 7.47396C11.433 7.98438 10.9226 8.56042 10.281 9.20209C9.6393 9.84375 8.82749 10.6069 7.84555 11.4917L6.99972 12.25ZM6.99972 10.675C7.93305 9.83889 8.7011 9.12188 9.30388 8.52396C9.90666 7.92605 10.383 7.40591 10.733 6.96355C11.083 6.52118 11.3261 6.12743 11.4622 5.7823C11.5983 5.43716 11.6664 5.09445 11.6664 4.75417C11.6664 4.17084 11.4719 3.68473 11.083 3.29584C10.6942 2.90695 10.208 2.7125 9.62472 2.7125C9.16777 2.7125 8.74485 2.84132 8.35597 3.09896C7.96708 3.3566 7.69972 3.68473 7.55388 4.08334H6.44555C6.29972 3.68473 6.03235 3.3566 5.64347 3.09896C5.25458 2.84132 4.83166 2.7125 4.37472 2.7125C3.79138 2.7125 3.30527 2.90695 2.91638 3.29584C2.52749 3.68473 2.33305 4.17084 2.33305 4.75417C2.33305 5.09445 2.4011 5.43716 2.53722 5.7823C2.67333 6.12743 2.91638 6.52118 3.26638 6.96355C3.61638 7.40591 4.09277 7.92605 4.69555 8.52396C5.29833 9.12188 6.06638 9.83889 6.99972 10.675Z" fill="#EF9595"/>
</g>
</g>
</svg>
