<svg width="14" height="14" viewBox="0 0 14 14" fill="none" xmlns="http://www.w3.org/2000/svg">
<g id="warning">
<mask id="mask0_68_166" style="mask-type:alpha" maskUnits="userSpaceOnUse" x="0" y="0" width="14" height="14">
<rect id="Bounding box" width="14" height="14" fill="#D9D9D9"/>
</mask>
<g mask="url(#mask0_68_166)">
<path id="warning_2" d="M1.58942 12.25C1.48248 12.25 1.38525 12.2233 1.29775 12.1698C1.21025 12.1163 1.1422 12.0458 1.09359 11.9583C1.04498 11.8708 1.01824 11.776 1.01338 11.674C1.00852 11.5719 1.03525 11.4722 1.09359 11.375L6.48942 2.04167C6.54775 1.94444 6.6231 1.87153 6.71546 1.82292C6.80782 1.77431 6.90261 1.75 6.99984 1.75C7.09706 1.75 7.19185 1.77431 7.28421 1.82292C7.37657 1.87153 7.45192 1.94444 7.51025 2.04167L12.9061 11.375C12.9644 11.4722 12.9912 11.5719 12.9863 11.674C12.9814 11.776 12.9547 11.8708 12.9061 11.9583C12.8575 12.0458 12.7894 12.1163 12.7019 12.1698C12.6144 12.2233 12.5172 12.25 12.4103 12.25H1.58942ZM2.59567 11.0833H11.404L6.99984 3.5L2.59567 11.0833ZM6.99984 10.5C7.16511 10.5 7.30366 10.4441 7.41546 10.3323C7.52727 10.2205 7.58317 10.0819 7.58317 9.91667C7.58317 9.75139 7.52727 9.61285 7.41546 9.50104C7.30366 9.38924 7.16511 9.33333 6.99984 9.33333C6.83456 9.33333 6.69602 9.38924 6.58421 9.50104C6.47241 9.61285 6.4165 9.75139 6.4165 9.91667C6.4165 10.0819 6.47241 10.2205 6.58421 10.3323C6.69602 10.4441 6.83456 10.5 6.99984 10.5ZM6.99984 8.75C7.16511 8.75 7.30366 8.6941 7.41546 8.58229C7.52727 8.47049 7.58317 8.33194 7.58317 8.16667V6.41667C7.58317 6.25139 7.52727 6.11285 7.41546 6.00104C7.30366 5.88924 7.16511 5.83333 6.99984 5.83333C6.83456 5.83333 6.69602 5.88924 6.58421 6.00104C6.47241 6.11285 6.4165 6.25139 6.4165 6.41667V8.16667C6.4165 8.33194 6.47241 8.47049 6.58421 8.58229C6.69602 8.6941 6.83456 8.75 6.99984 8.75Z" fill="#BDBDBD"/>
</g>
</g>
</svg>
